# xmcd CD database file
#
# Track frame offsets:
#	150
#	29357
#	52324
#	75053
#	92495
#	111897
#	138997
#	161361
#	175736
#	195810
#	220935
#	256202
#	273554
#	302762
#
# Disc length: 4266 seconds
#
# Revision: 0
# Processed by: cddbd v1.4PL0 Copyright (c) Steve Scherf et al.
# Submitted via: CDex 1.50
#
DISCID=b010a80e
DTITLE=Dire Straits - On Every Street
DYEAR=1997
DGENRE=Blues
TTITLE0=Calling Elvis
TTITLE1=On Every Street
TTITLE2=When It Comes To You
TTITLE3=Fade To Black
TTITLE4=The Bug
TTITLE5=You And Your Friend
TTITLE6=Heavy Fuel
TTITLE7=Iron Hand
TTITLE8=Ticket To Heaven
TTITLE9=My Parties
TTITLE10=The Planet Of New Orleans
TTITLE11=How Long
TTITLE12=Calling Elvis
TTITLE13=Hello
EXTD=YEAR: 1997
EXTT0=
EXTT1=
EXTT2=
EXTT3=
EXTT4=
EXTT5=
EXTT6=
EXTT7=
EXTT8=
EXTT9=
EXTT10=
EXTT11=
EXTT12=
EXTT13=
PLAYORDER=
